<svg xmlns="http://www.w3.org/2000/svg" xml:space="preserve" viewBox="0 0 256 128"><!-- x-author="QcFe" x-supervised-by="@peppeplaza"--><g fill="#031e3a"><path d="M67.3 126.44a44.6 44.6 0 0 1-8.35-5.44l-1.87-1.52-5.18-.02c-10.07-.03-16.54-3.4-29.01-15.06C12.76 94.92 8 91.98 1.69 91.28.55 91.16 0 90.98 0 90.73c0-.89 6.45-6.08 10.4-8.37 1.32-.77 3.01-3.06 5.53-7.48 1.01-1.78 1.05-2.15.32-2.82-4.31-3.9-4.53-10.15-.57-16.23 1.12-1.73 1.12-1.8-.1-3.54C4.45 36.53 7.7 16 22.92 5.8c11.21-7.52 25.42-7.74 34.22-.52l1.61 1.3c.07.06-.55.8-1.38 1.65-4.98 5.14-5.06 5.52-1.72 7.75 1.49.99 3.6 2.8 5.42 4.64 3.25 3.29 4.39 4.16 8.26 6.36 3.28 1.86 7.86 4.86 7.86 5.15 0 .54-3.25 3.04-5.3 4.08l-2.24 1.14.15 1.95c.09 1.2.02 2.33-.18 2.95-.49 1.46-.04 3.05 2.32 8.2 1.1 2.4 2 4.61 2 4.92 0 1.5-.98 2.5-3 3.03-2.4.63-2.87 1.34-1.95 2.93.52.92.16 2.07-.76 2.36-.42.13-.43.23-.1.9.42.83.18 2.2-.53 2.99-.27.3-.41 1.3-.48 3.28-.16 5.18-2 6.2-9.75 5.41-4.36-.44-4.2-.56-4.7 3.42l-.53 3.97c-.17 1.14.21 1.32 1.29.62 1.6-1.04 10.26-4.1 14.28-5.03 4.97-1.15 13.61.63 20.94 4.3l2.49 1.26v10.7c0 13.06-.39 14.8-4.51 20.37-3.01 4.06-14.2 12.4-16.28 12.12-.04 0-1.41-.7-3.06-1.55zM54.28 116.4c.6-.96-2.3-3.78-4.08-3.96-7.3-.77-14.2-6.54-20.27-16.94-.13-.22.95.83 2.39 2.34 6.3 6.6 11.87 10.28 17.16 11.33 1.14.23 1.25-.06.77-1.93-.23-.87-.48-2.44-.57-3.48-.25-3.19-.2-3.11-1.7-3.11-7.59 0-20.39-9.31-24.74-18a49.2 49.2 0 0 0-.88-1.7 5.3 5.3 0 0 0-1.2.38c-1.5.59-1.47.77 1.3 6.58 1.16 2.46 3.07 6.55 4.23 9.08 5.3 11.52 11.54 17.46 20.17 19.23 1.97.4 7.2.53 7.42.18zm15.73-3.95c.82-.34 3.15-3.2 7.24-8.87l3.3-4.54c4.24-5.85 4.67-7.07 2.96-8.41-1.7-1.34-1.49-1.52-10.1 8.33l-4.74 5.41-2.85-2.77a34.8 34.8 0 0 0-3.47-3.1c-2.23-1.17-4.96 2.5-3.45 4.65a123.1 123.1 0 0 0 8.66 8.92c1.22.88 1.23.89 2.45.38zM24.23 98.87c-3.27-7.4-5.3-12.16-5.98-13.94-.92-2.42-.8-2.4-4-.86-5.83 2.78-8.15 4.34-7.38 4.94.36.3.86.53 1.1.53.71 0 3.98 1.4 5.98 2.55 1.43.83 3.14 2.36 6.9 6.16 2.76 2.77 5.05 4.96 5.1 4.86.03-.11-.74-2.02-1.72-4.24zm25.28-5.54c.1-4.46-.04-5.5-.73-5.29-.47.15-.47.05-.12-2.08 1.52-9.13 1.5-9.21-1.54-12.58-3.67-4.04-5.4-7.66-2.24-4.68 4.28 4.03 13.73 6.77 18.7 5.42 1.93-.52 2.9-3.86 1.73-5.85-.76-1.29-.74-1.35.44-1.64 2.83-.7.86-2.63-2.7-2.67-2.13-.02-2.36-.45-.48-.87.37-.09 1.2-.32 1.84-.53.64-.2 1.52-.38 1.96-.38.78 0 .8-.04.8-1.29 0-.7.13-1.7.27-2.21.33-1.16.4-1.12-1.11-.64-2.1.68-4-.64-2.7-1.88.35-.34.56-.47.46-.28-.45.8.37 1.49 1.55 1.32.62-.09 2.1-.24 3.3-.33 3.37-.27 3.4-.4 1.37-5.05-2.14-4.92-3-7.97-2.63-9.34.47-1.78-.27-7.51-1.08-8.32-.17-.18-6.44 1.3-9.18 2.17-4.26 1.34-5.7 2.43-8.36 6.33-3.44 5.02-5.32 6.76-8.98 8.31-2.88 1.22-3.28 2-1.82 3.56.72.77.55.94-.6.61a3.61 3.61 0 0 1-2.46-2.34c-.32-.98-2.97-1.47-2.97-.55 0 3.36 5.41 7.97 7.05 6 .92-1.1 1.16.7.25 1.86-.7.89-2.46.98-3.99.21-2.26-1.14-2.09-1.53-2.1 4.64 0 8.64-1.65 12-7.3 14.88-.6.3-1.13.6-1.18.64-.44.39 3.16 4.72 7.13 8.59 5.77 5.62 10.53 8.1 15.31 7.97l2.03-.05zm9.45-46c-.25-.27-.45-.65-.45-.84 0-.26-.31-.3-1.22-.17-1.73.26-1.55-.17.6-1.44 3.5-2.05 5.6-2.2 5.44-.36-.07.84-.23 1.07-.96 1.39-.7.3-.88.55-.88 1.15 0 .95-1.75 1.14-2.53.27zm-4.5-4.65c3.01-2.6 6.83-3.34 9.83-1.9 3.24 1.56 1.53 2.44-2.11 1.1-1.84-.68-3.78-.4-6.89.97-1.88.83-1.97.8-.83-.17zM26.43 76.42c3.54-1.6 5.03-6.12 3.77-11.47-.7-2.98-.8-5.17-.28-6.99.72-2.57.5-3.56-.47-2.13-1.7 2.5-2.54 7.05-2.21 11.9.22 3.26.07 3.23-.82-.19-1.22-4.72-1.19-7.34.15-10.72.4-1.03.3-1.02-.82.06-2.58 2.52-3.13 6.98-1.39 11.13 1.68 4 1.18 5.91-2.03 7.63-2.95 1.59.74 2.28 4.1.78zm-6.16-8.36c-.6-1.43-.46-6.97.23-9.13 1.26-3.94 1.01-4.22-1.08-1.2-2.32 3.35-2.86 6.55-1.52 9.05 1.33 2.5 3.34 3.58 2.37 1.28zm7.65-18.43c5.2-1.65 11.68-5.23 16.64-9.22a11.73 11.73 0 0 1 2.18-1.52c.16 0 .7-.31 1.22-.7 2.34-1.73 11.53-5.41 16.1-6.45 4.23-.96 4.54-1.05 4.67-1.44.13-.4-1.85-1.87-4.38-3.25a11.13 11.13 0 0 1-3.61-3.13c-1.67-2.01-4.56-4.8-4.98-4.8-.1 0-.97 1.02-1.9 2.27-7.37 9.79-18.54 19.16-29.1 24.42-3.67 1.83-3.68 1.84-3.52 2.66.47 2.33 2.09 2.61 6.68 1.16zm7.08.61c3.16-.64 7.2-2.64 7.83-3.86.17-.32.57-.88.88-1.23.7-.78.8-.82-3.08 1.15-3.12 1.58-7.31 3.96-7.31 4.14 0 .14.09.13 1.68-.2zm-13.45-4.29c.14-.13 1.35-.82 2.7-1.53 14.01-7.44 31.6-24.35 28.36-27.29-2.82-2.55-12.66-2.13-19.43.83-6.55 2.87-11.71 8.56-13.32 14.7-1.3 4.9-.02 14.92 1.69 13.3zM14.9 36.1c0-9.22 2.39-15.46 7.94-20.7 6.92-6.55 18.02-8.73 25.08-4.93 1.9 1.01 1.71 1.07 2.84-.98 1.25-2.26 1.23-2.39-.31-3.05-10.63-4.57-24.72-.78-31.78 8.55-4.64 6.13-6.74 16.2-4.74 22.75.75 2.46.97 2.1.97-1.64zm4.54-8.9a27.7 27.7 0 0 0 1.54-2.1c4.81-7.29 14.2-11.65 25.75-11.96.86-.02-1.1-.95-3.13-1.48-9.8-2.57-21.66 4.64-24.75 15.03-.47 1.59-.38 1.67.59.51z"/><path d="M164.25 36.67c-.94 0-1.73.3-2.35.9-.62.6-.93 1.36-.93 2.31 0 .93.31 1.7.93 2.32.65.6 1.43.9 2.35.9.94 0 1.72-.3 2.34-.9.63-.62.95-1.4.95-2.32 0-.95-.31-1.72-.93-2.31-.62-.6-1.4-.9-2.36-.9zm-6.8 1.23-5.2 2.39v24.67h5.2zm49.59.38a14 14 0 0 0-5.8 1.2c-1.9.83-3.52 2.06-4.87 3.68a11.84 11.84 0 0 0-2.1 3.83c-.5 1.5-.74 3.13-.74 4.9 0 1.78.25 3.41.75 4.9.5 1.5 1.2 2.79 2.1 3.86a13.23 13.23 0 0 0 6.8 4.35l4.06.53c1.34 0 2.68-.18 4.03-.53 2.72-.75 5-2.2 6.82-4.35.9-1.07 1.6-2.36 2.1-3.85.52-1.5.77-3.14.77-4.9 0-2.22-.39-4.2-1.18-5.95a11.49 11.49 0 0 0-3.14-4.3 14.6 14.6 0 0 0-9.42-3.37zm-98.93.55v26.13h5.52v-8.65h4.9c2.7 0 4.84-.83 6.46-2.48a8.6 8.6 0 0 0 2.46-6.3c0-2.5-.82-4.57-2.46-6.23-1.64-1.65-3.8-2.47-6.45-2.47zm61.92 0v5.12h8.33v21.01L184 65V43.98l8.36-.03v-5.12zm-56.4 4.83h3.81c1.25 0 2.25.34 3 1.02a3.66 3.66 0 0 1 1.12 2.86c0 1.25-.37 2.22-1.13 2.92a4.2 4.2 0 0 1-2.99 1.03h-3.8zm93.6.1c2.21 0 4.06.75 5.53 2.23 1.48 1.47 2.23 3.44 2.23 5.9 0 2.49-.74 4.47-2.2 5.95a7.5 7.5 0 0 1-5.57 2.2c-2.2 0-4.05-.74-5.54-2.22-1.48-1.5-2.22-3.47-2.22-5.92 0-2.45.74-4.41 2.24-5.9a7.5 7.5 0 0 1 5.52-2.23zm-68.28 2.36c-2.91 0-5.3.92-7.16 2.77a9.32 9.32 0 0 0-2.77 6.89v.14c0 1.78.41 3.38 1.24 4.82a9.23 9.23 0 0 0 3.53 3.5c1.5.86 3.22 1.3 5.16 1.3 2.96-.05 5.36-.98 7.2-2.82a9.42 9.42 0 0 0 2.77-6.94c0-2.76-.93-5.06-2.8-6.9a9.73 9.73 0 0 0-7.17-2.76zm22.73.6v18.24h5.22V46.72ZM138.95 51c1.3 0 2.38.44 3.25 1.31a4.65 4.65 0 0 1 1.31 3.47 4.8 4.8 0 0 1-1.3 3.52 4.42 4.42 0 0 1-3.26 1.29 4.38 4.38 0 0 1-3.22-1.3 4.8 4.8 0 0 1-1.3-3.51c0-1.45.43-2.6 1.3-3.47a4.35 4.35 0 0 1 3.22-1.3zm58.03 22.1c-1.03 0-1.82.78-1.82 1.86 0 1.05.8 1.8 1.82 1.8 1.08 0 1.88-.75 1.88-1.8a1.8 1.8 0 0 0-1.88-1.85zm-50.59.47v17.4h2.76V82.9a3.29 3.29 0 0 1 2.62-1.37 2.3 2.3 0 0 1 2.37 2.4v7.03h2.76v-7.72c0-2.79-2.16-4.3-4.36-4.3-1.5 0-2.62.63-3.39 1.37v-6.74zm-34.05.6-6.63 16.8h3.1l1.46-3.87h7.42l1.5 3.86h3.1l-6.62-16.8zm28.72.67-2.61 1.2v3.29h-2.16v2.37h2.01v6.12c0 2.4 1.56 3.5 3.63 3.5.79 0 1.6-.16 1.87-.26V88.7c-.26.1-.67.14-1.03.14-1.15 0-1.7-.5-1.7-1.56V81.7h2.73v-2.37h-2.74zm49.28 0-2.62 1.2v3.29h-2.16v2.37h2.02v6.12c0 2.4 1.56 3.5 3.62 3.5.8 0 1.6-.16 1.87-.26V88.7c-.26.1-.67.14-1.03.14-1.15 0-1.7-.5-1.7-1.56V81.7h2.73v-2.37h-2.73zm39.3 0-2.6 1.2v3.29h-2.17v2.37h2.02v6.12c0 2.4 1.56 3.5 3.62 3.5.8 0 1.61-.16 1.87-.26V88.7c-.26.1-.67.14-1.03.14-1.15 0-1.7-.5-1.7-1.56V81.7h2.73v-2.37h-2.73zm-115.7 2.64 2.72 6.98h-5.38zm51.08 1.46c-3.2 0-5.84 2.45-5.84 6.15 0 4.08 2.76 6.24 6.05 6.24 2.35 0 3.8-.72 4.83-1.47v-2.52a7.34 7.34 0 0 1-4.66 1.59c-1.7 0-3.22-1.13-3.31-2.89h8.64c.02-.16.05-.6.05-.88 0-3.63-2.12-6.22-5.76-6.22zm14.37 0c-1.5 0-2.61.65-3.38 1.42v-1.03h-2.71v11.63h2.76V82.9a3.2 3.2 0 0 1 2.56-1.37c1.28 0 2.33.9 2.33 2.4v7.03h2.76v-7.72c0-2.79-2.1-4.3-4.32-4.3zm27.77 0c-3.62 0-6.29 2.52-6.29 6.2 0 3.64 2.67 6.19 6.29 6.19 1.56 0 2.74-.41 3.6-.82v-2.93a6.01 6.01 0 0 1-3.53 1.1 3.36 3.36 0 0 1-3.45-3.55c0-2.35 1.7-3.52 3.45-3.52 1.32 0 2.35.3 3.53 1.1v-2.95a8.22 8.22 0 0 0-3.6-.82zm11 0c-1.74 0-3.32.46-4.57 1.08v2.71a8.72 8.72 0 0 1 4.4-1.34c1.7 0 2.44.89 2.44 1.9v1c-.74-.4-1.8-.72-3.1-.72-2.35 0-4.41 1.35-4.41 3.72 0 2.57 1.82 4.04 4.34 4.04 1.47 0 2.62-.58 3.32-1.23v.86h2.61v-7.8c0-2.25-1.6-4.22-5.04-4.22zm22.22 0a6.04 6.04 0 0 0-6.24 6.2c0 3.52 2.59 6.19 6.24 6.19a6 6 0 0 0 6.21-6.2c0-3.5-2.57-6.19-6.21-6.19zm14.78 0c-1.49 0-2.74.84-3.34 2.26v-1.87h-2.7v11.63h2.75v-6.98a3.02 3.02 0 0 1 2.98-2.16c.38 0 .77.05 1.15.1v-2.88c-.17-.05-.55-.1-.84-.1zm-131.26.39v7.7c0 2.8 2.12 4.3 4.32 4.3 1.52 0 2.62-.6 3.39-1.4v1.03h2.71V79.33h-2.76v8.06a3.2 3.2 0 0 1-2.57 1.37c-1.27 0-2.33-.91-2.33-2.43v-7zm71.74 0v11.63h2.76V79.33Zm-30.62 2.01c1.84 0 2.83 1.18 2.88 2.64h-5.74a2.84 2.84 0 0 1 2.86-2.64zm75.36.22c1.77 0 3.33 1.27 3.33 3.57s-1.56 3.6-3.33 3.6c-1.8 0-3.36-1.3-3.36-3.6s1.56-3.57 3.36-3.57zm-22.47 4c1.13 0 2.11.46 2.52.8v1.77c-.4.41-1.37.99-2.52.99-1.22 0-2.2-.7-2.2-1.87 0-1.06.98-1.68 2.2-1.68z"/></g></svg>